<svg width="217" height="217" viewBox="0 0 217 217" fill="none" xmlns="http://www.w3.org/2000/svg">
<circle cx="108.5" cy="108.5" r="108.5" fill="url(#paint0_linear_56_8)"/>
<g filter="url(#filter0_d_56_8)">
<path fill-rule="evenodd" clip-rule="evenodd" d="M129.59 84.584C131.126 86.3014 133.777 87.16 137.542 87.16C141.318 87.16 143.969 86.3014 145.494 84.584C147.03 82.856 147.798 80.4667 147.798 77.416C147.798 74.3867 147.03 72.0294 145.494 70.344C143.969 68.6587 141.318 67.816 137.542 67.816C133.777 67.816 131.126 68.6587 129.59 70.344C128.054 72.0294 127.286 74.3867 127.286 77.416C127.286 80.4667 128.054 82.856 129.59 84.584ZM140.326 81.848C139.601 82.52 138.673 82.856 137.542 82.856C136.411 82.856 135.483 82.52 134.758 81.848C134.033 81.176 133.67 79.7094 133.67 77.448C133.67 75.208 134.033 73.7574 134.758 73.096C135.483 72.4347 136.411 72.104 137.542 72.104C138.673 72.104 139.601 72.4347 140.326 73.096C141.051 73.7574 141.414 75.208 141.414 77.448C141.414 79.7094 141.051 81.176 140.326 81.848ZM149.196 68.024V87H155.596V75.8176C155.696 74.7502 155.952 73.9336 156.364 73.368C156.908 72.6214 157.612 72.248 158.476 72.248C159.276 72.248 159.858 72.568 160.22 73.208C160.583 73.848 160.764 75.016 160.764 76.712V87H167.148V76.168L167.148 76.1148L167.148 76.0177C167.233 74.8517 167.495 73.9685 167.932 73.368C168.476 72.6214 169.18 72.248 170.044 72.248C170.844 72.248 171.415 72.568 171.756 73.208C172.098 73.848 172.268 75.016 172.268 76.712V87H178.652V76.168C178.652 73.992 178.231 72.0667 177.388 70.392C176.556 68.7174 174.828 67.88 172.204 67.88C169.954 67.88 167.975 68.744 166.268 70.472C166.183 70.5586 166.101 70.6451 166.02 70.7316C165.966 70.6173 165.91 70.5041 165.852 70.392C164.999 68.7174 163.26 67.88 160.636 67.88C158.595 67.88 156.777 68.5777 155.184 69.9729L154.14 68.024H149.196ZM117.104 87.192C113.264 87.192 110.619 86.3547 109.168 84.68C107.718 82.9947 106.992 80.6267 106.992 77.576C106.992 74.4827 107.718 72.0934 109.168 70.408C110.619 68.712 113.264 67.864 117.104 67.864C120.475 67.864 122.795 68.5467 124.064 69.912C125.334 71.2667 126.086 72.664 126.32 74.104L120.64 76.104C120.555 74.7174 120.198 73.7307 119.568 73.144C118.939 72.5467 118.118 72.248 117.104 72.248C116.102 72.248 115.248 72.584 114.544 73.256C113.851 73.9174 113.504 75.3574 113.504 77.576C113.504 79.72 113.851 81.1334 114.544 81.816C115.248 82.4987 116.102 82.84 117.104 82.84C118.118 82.84 118.939 82.536 119.568 81.928C120.198 81.32 120.555 80.3547 120.64 79.032L126.32 81.112C126.086 82.4774 125.334 83.832 124.064 85.176C122.795 86.52 120.475 87.192 117.104 87.192ZM88.0558 84.584C89.5598 86.3227 92.2531 87.192 96.1358 87.192C98.1731 87.192 99.7571 87.0214 100.888 86.68C102.018 86.328 103.005 85.8054 103.848 85.112C104.701 84.4187 105.256 83.4587 105.512 82.232L99.8158 80.6C99.5598 81.1654 99.2931 81.64 99.0158 82.024C98.7385 82.408 98.3705 82.6854 97.9118 82.856C97.4638 83.016 96.8718 83.096 96.1358 83.096C94.8878 83.096 93.8798 82.7494 93.1118 82.056C92.5816 81.5706 92.237 80.6853 92.078 79.4H106.072C106.146 78.8454 106.184 78.2214 106.184 77.528C106.184 74.616 105.464 72.2747 104.024 70.504C102.594 68.7227 99.9225 67.832 96.0078 67.832C92.2105 67.832 89.5598 68.7014 88.0558 70.44C86.5518 72.1787 85.7998 74.5414 85.7998 77.528C85.7998 80.4827 86.5518 82.8347 88.0558 84.584ZM99.8492 75.576H92.0875C92.2488 74.3404 92.5849 73.4817 93.0958 73C93.8531 72.2854 94.8291 71.928 96.0238 71.928C97.2291 71.928 98.1678 72.2427 98.8398 72.872C99.4408 73.4261 99.7773 74.3274 99.8492 75.576Z" fill="#B7F3CF"/>
<path fill-rule="evenodd" clip-rule="evenodd" d="M65.6015 136.567L66.1499 140H80.2479V80.3401H65.1239V98.0851C61.0456 95.7551 56.3082 94.5901 50.9119 94.5901C44.4772 94.5901 39.8666 96.6674 37.0799 100.822C34.2932 104.977 32.8999 110.487 32.8999 117.352C32.8999 124.243 34.2932 129.791 37.0799 133.996C39.8666 138.201 44.4772 140.304 50.9119 140.304C56.5106 140.304 61.3999 139.063 65.5799 136.58C65.5871 136.576 65.5943 136.572 65.6015 136.567ZM65.1239 122.575V112.328C64.9373 110.302 64.0633 108.62 62.5019 107.282C60.7286 105.737 58.6512 104.964 56.2699 104.964C53.6606 104.964 51.6592 105.762 50.2659 107.358C48.8979 108.954 48.2139 112.311 48.2139 117.428C48.2139 122.596 48.8979 125.978 50.2659 127.574C51.6592 129.17 53.6606 129.968 56.2699 129.968C58.6512 129.968 60.7286 129.208 62.5019 127.688C64.0633 126.327 64.9373 124.623 65.1239 122.575ZM108.531 140.456C99.3098 140.456 92.9132 138.391 89.3412 134.262C85.7692 130.107 83.9832 124.521 83.9832 117.504C83.9832 110.411 85.7692 104.799 89.3412 100.67C92.9132 96.5407 99.2085 94.4761 108.227 94.4761C117.524 94.4761 123.87 96.5914 127.265 100.822C130.685 105.027 132.395 110.588 132.395 117.504C132.395 119.151 132.306 120.633 132.129 121.95H98.8938C99.2715 125.003 100.09 127.105 101.349 128.258C103.173 129.905 105.567 130.728 108.531 130.728C110.279 130.728 111.685 130.538 112.749 130.158C113.838 129.753 114.712 129.094 115.371 128.182C116.03 127.27 116.663 126.143 117.271 124.8L130.799 128.676C130.191 131.589 128.874 133.869 126.847 135.516C124.846 137.163 122.502 138.404 119.817 139.24C117.132 140.051 113.37 140.456 108.531 140.456ZM117.35 112.868H98.9164C99.2996 109.933 100.098 107.894 101.311 106.75C103.11 105.053 105.428 104.204 108.265 104.204C111.128 104.204 113.357 104.951 114.953 106.446C116.381 107.762 117.18 109.903 117.35 112.868ZM135.797 140V94.9321H147.501L149.971 100.007C153.884 96.3956 158.888 94.5901 164.981 94.5901C171.036 94.5901 175.191 96.6548 177.445 100.784C179.725 104.913 180.865 110.246 180.865 116.782V140H165.703V117.048C165.703 112.133 165.171 108.891 164.107 107.32C163.043 105.749 161.397 104.964 159.167 104.964C156.761 104.964 154.709 106.003 153.011 108.08C152.062 109.228 151.378 110.59 150.959 112.167V140H135.797Z" fill="#B7F3CF"/>
</g>
<defs>
<filter id="filter0_d_56_8" x="32.8999" y="67.816" width="149.966" height="74.64" filterUnits="userSpaceOnUse" color-interpolation-filters="sRGB">
<feFlood flood-opacity="0" result="BackgroundImageFix"/>
<feColorMatrix in="SourceAlpha" type="matrix" values="0 0 0 0 0 0 0 0 0 0 0 0 0 0 0 0 0 0 127 0" result="hardAlpha"/>
<feOffset dx="2" dy="2"/>
<feComposite in2="hardAlpha" operator="out"/>
<feColorMatrix type="matrix" values="0 0 0 0 0 0 0 0 0 0 0 0 0 0 0 0 0 0 0.19 0"/>
<feBlend mode="normal" in2="BackgroundImageFix" result="effect1_dropShadow_56_8"/>
<feBlend mode="normal" in="SourceGraphic" in2="effect1_dropShadow_56_8" result="shape"/>
</filter>
<linearGradient id="paint0_linear_56_8" x1="170.5" y1="16" x2="40" y2="202.5" gradientUnits="userSpaceOnUse">
<stop stop-color="#483FB5"/>
<stop offset="1" stop-color="#8858C4"/>
</linearGradient>
</defs>
</svg>
